<mxfile host="app.diagrams.net" agent="Mozilla/5.0 (Macintosh; Intel Mac OS X 10.15; rv:137.0) Gecko/20100101 Firefox/137.0" version="26.1.1" pages="4">
  <diagram name="Metaspolit框架" id="xjAZ0DYV6IL-wEELrBVq">
    <mxGraphModel dx="1831" dy="787" grid="0" gridSize="10" guides="1" tooltips="1" connect="1" arrows="1" fold="1" page="0" pageScale="1" pageWidth="827" pageHeight="1169" math="0" shadow="0">
      <root>
        <mxCell id="0" />
        <mxCell id="1" parent="0" />
        <mxCell id="jNXyXZ3e89Kq25l4GGI1-3" value="" style="edgeStyle=orthogonalEdgeStyle;rounded=0;orthogonalLoop=1;jettySize=auto;html=1;" edge="1" parent="1" source="jNXyXZ3e89Kq25l4GGI1-1" target="jNXyXZ3e89Kq25l4GGI1-2">
          <mxGeometry relative="1" as="geometry" />
        </mxCell>
        <mxCell id="jNXyXZ3e89Kq25l4GGI1-1" value="&lt;font style=&quot;font-size: 16px;&quot;&gt;外部安全工具&lt;/font&gt;" style="strokeWidth=2;html=1;shape=mxgraph.flowchart.multi-document;whiteSpace=wrap;" vertex="1" parent="1">
          <mxGeometry x="-7" y="61" width="139" height="82" as="geometry" />
        </mxCell>
        <mxCell id="jNXyXZ3e89Kq25l4GGI1-2" value="&lt;font style=&quot;font-size: 16px;&quot;&gt;插件&lt;/font&gt;" style="strokeWidth=2;html=1;shape=mxgraph.flowchart.multi-document;whiteSpace=wrap;" vertex="1" parent="1">
          <mxGeometry x="-9" y="189" width="143" height="78" as="geometry" />
        </mxCell>
        <mxCell id="jNXyXZ3e89Kq25l4GGI1-4" value="&lt;font style=&quot;font-size: 16px;&quot;&gt;扩展脚本&lt;/font&gt;" style="strokeWidth=2;html=1;shape=mxgraph.flowchart.multi-document;whiteSpace=wrap;" vertex="1" parent="1">
          <mxGeometry x="-11" y="316" width="147" height="76" as="geometry" />
        </mxCell>
        <mxCell id="jNXyXZ3e89Kq25l4GGI1-5" value="" style="strokeWidth=2;html=1;shape=mxgraph.flowchart.multi-document;whiteSpace=wrap;" vertex="1" parent="1">
          <mxGeometry x="266" y="119.5" width="352" height="229.5" as="geometry" />
        </mxCell>
        <mxCell id="jNXyXZ3e89Kq25l4GGI1-6" style="edgeStyle=orthogonalEdgeStyle;rounded=0;orthogonalLoop=1;jettySize=auto;html=1;entryX=0;entryY=0.5;entryDx=0;entryDy=0;entryPerimeter=0;" edge="1" parent="1" source="jNXyXZ3e89Kq25l4GGI1-2" target="jNXyXZ3e89Kq25l4GGI1-5">
          <mxGeometry relative="1" as="geometry" />
        </mxCell>
        <mxCell id="jNXyXZ3e89Kq25l4GGI1-7" value="&lt;font style=&quot;font-size: 16px;&quot;&gt;Rex&lt;/font&gt;" style="rounded=1;whiteSpace=wrap;html=1;" vertex="1" parent="1">
          <mxGeometry x="362" y="172" width="95" height="32" as="geometry" />
        </mxCell>
        <mxCell id="jNXyXZ3e89Kq25l4GGI1-8" value="&lt;font style=&quot;font-size: 16px;&quot;&gt;framework-core&lt;/font&gt;" style="rounded=1;whiteSpace=wrap;html=1;" vertex="1" parent="1">
          <mxGeometry x="324" y="218" width="171" height="32" as="geometry" />
        </mxCell>
        <mxCell id="jNXyXZ3e89Kq25l4GGI1-9" value="&lt;font style=&quot;font-size: 16px;&quot;&gt;framework-base&lt;/font&gt;" style="rounded=1;whiteSpace=wrap;html=1;" vertex="1" parent="1">
          <mxGeometry x="323" y="267" width="173" height="40" as="geometry" />
        </mxCell>
        <mxCell id="jNXyXZ3e89Kq25l4GGI1-10" value="" style="strokeWidth=2;html=1;shape=mxgraph.flowchart.multi-document;whiteSpace=wrap;" vertex="1" parent="1">
          <mxGeometry x="222" y="443" width="411" height="179" as="geometry" />
        </mxCell>
        <mxCell id="jNXyXZ3e89Kq25l4GGI1-11" value="&lt;font style=&quot;font-size: 16px;&quot;&gt;模块&lt;/font&gt;" style="text;html=1;align=center;verticalAlign=middle;whiteSpace=wrap;rounded=0;" vertex="1" parent="1">
          <mxGeometry x="389" y="468" width="60" height="30" as="geometry" />
        </mxCell>
        <mxCell id="jNXyXZ3e89Kq25l4GGI1-12" value="" style="strokeWidth=2;html=1;shape=mxgraph.flowchart.multi-document;whiteSpace=wrap;" vertex="1" parent="1">
          <mxGeometry x="758" y="1" width="319" height="191" as="geometry" />
        </mxCell>
        <mxCell id="jNXyXZ3e89Kq25l4GGI1-13" value="" style="strokeWidth=2;html=1;shape=mxgraph.flowchart.multi-document;whiteSpace=wrap;" vertex="1" parent="1">
          <mxGeometry x="758" y="280" width="273" height="211" as="geometry" />
        </mxCell>
        <mxCell id="jNXyXZ3e89Kq25l4GGI1-14" value="&lt;span style=&quot;font-size: 16px;&quot;&gt;接口&lt;/span&gt;" style="text;html=1;align=center;verticalAlign=middle;whiteSpace=wrap;rounded=0;" vertex="1" parent="1">
          <mxGeometry x="880" y="31" width="60" height="30" as="geometry" />
        </mxCell>
        <mxCell id="jNXyXZ3e89Kq25l4GGI1-15" value="&lt;span style=&quot;font-size: 16px;&quot;&gt;功能程序&lt;/span&gt;" style="text;html=1;align=center;verticalAlign=middle;whiteSpace=wrap;rounded=0;" vertex="1" parent="1">
          <mxGeometry x="848" y="319" width="70.5" height="30" as="geometry" />
        </mxCell>
        <mxCell id="jNXyXZ3e89Kq25l4GGI1-16" value="" style="endArrow=classic;html=1;rounded=0;exitX=0.5;exitY=1;exitDx=0;exitDy=0;entryX=0.5;entryY=0;entryDx=0;entryDy=0;" edge="1" parent="1" source="jNXyXZ3e89Kq25l4GGI1-7" target="jNXyXZ3e89Kq25l4GGI1-8">
          <mxGeometry width="50" height="50" relative="1" as="geometry">
            <mxPoint x="387" y="304" as="sourcePoint" />
            <mxPoint x="437" y="254" as="targetPoint" />
          </mxGeometry>
        </mxCell>
        <mxCell id="jNXyXZ3e89Kq25l4GGI1-17" value="" style="endArrow=classic;html=1;rounded=0;exitX=0.5;exitY=1;exitDx=0;exitDy=0;entryX=0.5;entryY=0;entryDx=0;entryDy=0;" edge="1" parent="1" source="jNXyXZ3e89Kq25l4GGI1-8" target="jNXyXZ3e89Kq25l4GGI1-9">
          <mxGeometry width="50" height="50" relative="1" as="geometry">
            <mxPoint x="586" y="39" as="sourcePoint" />
            <mxPoint x="586" y="61" as="targetPoint" />
            <Array as="points" />
          </mxGeometry>
        </mxCell>
        <mxCell id="jNXyXZ3e89Kq25l4GGI1-18" value="" style="endArrow=classic;html=1;rounded=0;entryX=0;entryY=0.5;entryDx=0;entryDy=0;entryPerimeter=0;" edge="1" parent="1" target="jNXyXZ3e89Kq25l4GGI1-12">
          <mxGeometry width="50" height="50" relative="1" as="geometry">
            <mxPoint x="618" y="205" as="sourcePoint" />
            <mxPoint x="668" y="155" as="targetPoint" />
            <Array as="points">
              <mxPoint x="681" y="205" />
              <mxPoint x="681" y="97" />
            </Array>
          </mxGeometry>
        </mxCell>
        <mxCell id="jNXyXZ3e89Kq25l4GGI1-20" value="" style="endArrow=classic;html=1;rounded=0;entryX=0;entryY=0.5;entryDx=0;entryDy=0;entryPerimeter=0;" edge="1" parent="1" target="jNXyXZ3e89Kq25l4GGI1-13">
          <mxGeometry width="50" height="50" relative="1" as="geometry">
            <mxPoint x="680" y="114" as="sourcePoint" />
            <mxPoint x="457" y="263" as="targetPoint" />
            <Array as="points">
              <mxPoint x="680" y="386" />
            </Array>
          </mxGeometry>
        </mxCell>
        <mxCell id="jNXyXZ3e89Kq25l4GGI1-21" style="edgeStyle=orthogonalEdgeStyle;rounded=0;orthogonalLoop=1;jettySize=auto;html=1;entryX=0.458;entryY=0.933;entryDx=0;entryDy=0;entryPerimeter=0;" edge="1" parent="1" source="jNXyXZ3e89Kq25l4GGI1-10" target="jNXyXZ3e89Kq25l4GGI1-5">
          <mxGeometry relative="1" as="geometry" />
        </mxCell>
        <mxCell id="jNXyXZ3e89Kq25l4GGI1-22" style="edgeStyle=orthogonalEdgeStyle;rounded=0;orthogonalLoop=1;jettySize=auto;html=1;entryX=0.285;entryY=0.007;entryDx=0;entryDy=0;entryPerimeter=0;dashed=1;" edge="1" parent="1" source="jNXyXZ3e89Kq25l4GGI1-4" target="jNXyXZ3e89Kq25l4GGI1-10">
          <mxGeometry relative="1" as="geometry" />
        </mxCell>
        <mxCell id="jNXyXZ3e89Kq25l4GGI1-23" value="&lt;font style=&quot;font-size: 16px;&quot;&gt;Exploits&lt;/font&gt;" style="rounded=1;whiteSpace=wrap;html=1;" vertex="1" parent="1">
          <mxGeometry x="246" y="498" width="95" height="38" as="geometry" />
        </mxCell>
        <mxCell id="jNXyXZ3e89Kq25l4GGI1-24" value="&lt;span style=&quot;font-size: 16px;&quot;&gt;Aux&lt;/span&gt;" style="rounded=1;whiteSpace=wrap;html=1;" vertex="1" parent="1">
          <mxGeometry x="366" y="498" width="95" height="38" as="geometry" />
        </mxCell>
        <mxCell id="jNXyXZ3e89Kq25l4GGI1-25" value="&lt;span style=&quot;font-size: 16px;&quot;&gt;Post&lt;/span&gt;" style="rounded=1;whiteSpace=wrap;html=1;" vertex="1" parent="1">
          <mxGeometry x="477" y="498" width="95" height="38" as="geometry" />
        </mxCell>
        <mxCell id="jNXyXZ3e89Kq25l4GGI1-26" value="&lt;span style=&quot;font-size: 16px;&quot;&gt;Payloads&lt;/span&gt;" style="rounded=1;whiteSpace=wrap;html=1;" vertex="1" parent="1">
          <mxGeometry x="246" y="550" width="95" height="38" as="geometry" />
        </mxCell>
        <mxCell id="jNXyXZ3e89Kq25l4GGI1-27" value="&lt;span style=&quot;font-size: 16px;&quot;&gt;Encoders&lt;/span&gt;" style="rounded=1;whiteSpace=wrap;html=1;" vertex="1" parent="1">
          <mxGeometry x="362" y="550" width="95" height="38" as="geometry" />
        </mxCell>
        <mxCell id="jNXyXZ3e89Kq25l4GGI1-28" value="&lt;span style=&quot;font-size: 16px;&quot;&gt;Nops&lt;/span&gt;" style="rounded=1;whiteSpace=wrap;html=1;" vertex="1" parent="1">
          <mxGeometry x="474" y="550" width="95" height="38" as="geometry" />
        </mxCell>
        <mxCell id="jNXyXZ3e89Kq25l4GGI1-29" value="&lt;font style=&quot;font-size: 20px;&quot;&gt;msf*scan&lt;/font&gt;" style="rounded=1;whiteSpace=wrap;html=1;" vertex="1" parent="1">
          <mxGeometry x="768" y="366" width="98" height="30" as="geometry" />
        </mxCell>
        <mxCell id="jNXyXZ3e89Kq25l4GGI1-31" value="&lt;font style=&quot;font-size: 20px;&quot;&gt;msfpayload&lt;/font&gt;" style="rounded=1;whiteSpace=wrap;html=1;" vertex="1" parent="1">
          <mxGeometry x="887.5" y="365" width="105" height="32" as="geometry" />
        </mxCell>
        <mxCell id="jNXyXZ3e89Kq25l4GGI1-32" value="&lt;font style=&quot;font-size: 20px;&quot;&gt;msfencode&lt;/font&gt;" style="rounded=1;whiteSpace=wrap;html=1;" vertex="1" parent="1">
          <mxGeometry x="762.5" y="423" width="109" height="33" as="geometry" />
        </mxCell>
        <mxCell id="jNXyXZ3e89Kq25l4GGI1-33" value="&lt;font style=&quot;font-size: 20px;&quot;&gt;msfvenom&lt;/font&gt;" style="rounded=1;whiteSpace=wrap;html=1;" vertex="1" parent="1">
          <mxGeometry x="888" y="424.5" width="104" height="30" as="geometry" />
        </mxCell>
        <mxCell id="jNXyXZ3e89Kq25l4GGI1-34" value="&lt;font style=&quot;font-size: 20px;&quot;&gt;msfconsole&lt;/font&gt;" style="rounded=1;whiteSpace=wrap;html=1;" vertex="1" parent="1">
          <mxGeometry x="768" y="74.5" width="108" height="33" as="geometry" />
        </mxCell>
        <mxCell id="jNXyXZ3e89Kq25l4GGI1-35" value="&lt;font style=&quot;font-size: 20px;&quot;&gt;msfcli&lt;/font&gt;" style="rounded=1;whiteSpace=wrap;html=1;" vertex="1" parent="1">
          <mxGeometry x="915" y="74.5" width="108" height="33" as="geometry" />
        </mxCell>
        <mxCell id="jNXyXZ3e89Kq25l4GGI1-36" value="&lt;font style=&quot;font-size: 20px;&quot;&gt;msfgui&lt;/font&gt;" style="rounded=1;whiteSpace=wrap;html=1;" vertex="1" parent="1">
          <mxGeometry x="768" y="119.5" width="108" height="33" as="geometry" />
        </mxCell>
        <mxCell id="jNXyXZ3e89Kq25l4GGI1-37" value="&lt;font style=&quot;font-size: 20px;&quot;&gt;msfapi&lt;/font&gt;" style="rounded=1;whiteSpace=wrap;html=1;" vertex="1" parent="1">
          <mxGeometry x="915" y="119.5" width="108" height="33" as="geometry" />
        </mxCell>
      </root>
    </mxGraphModel>
  </diagram>
  <diagram id="bSWKAtSyW3RlO6I7936O" name="metaspolit发现漏洞攻击思路">
    <mxGraphModel dx="1579" dy="1048" grid="0" gridSize="10" guides="1" tooltips="1" connect="1" arrows="1" fold="1" page="0" pageScale="1" pageWidth="827" pageHeight="1169" math="0" shadow="0">
      <root>
        <mxCell id="0" />
        <mxCell id="1" parent="0" />
        <mxCell id="afysz009fwl63MePta9u-13" style="edgeStyle=orthogonalEdgeStyle;rounded=0;orthogonalLoop=1;jettySize=auto;html=1;entryX=0.5;entryY=0;entryDx=0;entryDy=0;" edge="1" parent="1" source="afysz009fwl63MePta9u-1" target="afysz009fwl63MePta9u-2">
          <mxGeometry relative="1" as="geometry" />
        </mxCell>
        <mxCell id="afysz009fwl63MePta9u-1" value="已知漏洞&lt;div&gt;CVE-2020-0796&lt;/div&gt;" style="ellipse;whiteSpace=wrap;html=1;" vertex="1" parent="1">
          <mxGeometry x="80" y="-29" width="154" height="80" as="geometry" />
        </mxCell>
        <mxCell id="afysz009fwl63MePta9u-4" style="edgeStyle=orthogonalEdgeStyle;rounded=0;orthogonalLoop=1;jettySize=auto;html=1;entryX=0;entryY=0.5;entryDx=0;entryDy=0;" edge="1" parent="1" source="afysz009fwl63MePta9u-2" target="afysz009fwl63MePta9u-3">
          <mxGeometry relative="1" as="geometry" />
        </mxCell>
        <mxCell id="afysz009fwl63MePta9u-7" style="edgeStyle=orthogonalEdgeStyle;rounded=0;orthogonalLoop=1;jettySize=auto;html=1;entryX=0.5;entryY=0;entryDx=0;entryDy=0;" edge="1" parent="1" source="afysz009fwl63MePta9u-2" target="afysz009fwl63MePta9u-6">
          <mxGeometry relative="1" as="geometry" />
        </mxCell>
        <mxCell id="afysz009fwl63MePta9u-2" value="查找模块" style="ellipse;whiteSpace=wrap;html=1;" vertex="1" parent="1">
          <mxGeometry x="72" y="112" width="170" height="75" as="geometry" />
        </mxCell>
        <mxCell id="afysz009fwl63MePta9u-3" value="搜索exploit search CVE-2020-0796" style="rounded=0;whiteSpace=wrap;html=1;" vertex="1" parent="1">
          <mxGeometry x="402" y="124.25" width="255" height="50.5" as="geometry" />
        </mxCell>
        <mxCell id="afysz009fwl63MePta9u-16" style="edgeStyle=orthogonalEdgeStyle;rounded=0;orthogonalLoop=1;jettySize=auto;html=1;" edge="1" parent="1" source="afysz009fwl63MePta9u-6" target="afysz009fwl63MePta9u-14">
          <mxGeometry relative="1" as="geometry" />
        </mxCell>
        <mxCell id="afysz009fwl63MePta9u-6" value="配置程序" style="ellipse;whiteSpace=wrap;html=1;" vertex="1" parent="1">
          <mxGeometry x="74" y="259" width="166" height="70" as="geometry" />
        </mxCell>
        <mxCell id="afysz009fwl63MePta9u-8" value="" style="endArrow=classic;html=1;rounded=0;exitX=0;exitY=0.5;exitDx=0;exitDy=0;entryX=1;entryY=1;entryDx=0;entryDy=0;" edge="1" parent="1" source="afysz009fwl63MePta9u-6" target="afysz009fwl63MePta9u-11">
          <mxGeometry width="50" height="50" relative="1" as="geometry">
            <mxPoint x="22" y="266" as="sourcePoint" />
            <mxPoint x="-9" y="147" as="targetPoint" />
          </mxGeometry>
        </mxCell>
        <mxCell id="afysz009fwl63MePta9u-10" value="" style="endArrow=classic;html=1;rounded=0;exitX=0;exitY=0.5;exitDx=0;exitDy=0;entryX=1;entryY=0.5;entryDx=0;entryDy=0;" edge="1" parent="1" source="afysz009fwl63MePta9u-6" target="afysz009fwl63MePta9u-12">
          <mxGeometry width="50" height="50" relative="1" as="geometry">
            <mxPoint x="-65" y="313" as="sourcePoint" />
            <mxPoint y="389" as="targetPoint" />
          </mxGeometry>
        </mxCell>
        <mxCell id="afysz009fwl63MePta9u-11" value="显示参数：&lt;br&gt;show options&lt;br&gt;show targets&lt;div&gt;show encoders&lt;/div&gt;&lt;div&gt;show advanced&lt;/div&gt;&lt;div&gt;info xxx&lt;/div&gt;" style="text;html=1;align=center;verticalAlign=middle;whiteSpace=wrap;rounded=0;strokeColor=default;dashed=1;dashPattern=12 12;" vertex="1" parent="1">
          <mxGeometry x="-212" y="93" width="196" height="107.5" as="geometry" />
        </mxCell>
        <mxCell id="afysz009fwl63MePta9u-12" value="设置参数：&lt;br&gt;use xxx（exploit）&lt;br&gt;&lt;div&gt;set xxx（payload）&lt;/div&gt;&lt;div&gt;set xxx xxx（参数）&lt;/div&gt;" style="text;html=1;align=center;verticalAlign=middle;whiteSpace=wrap;rounded=0;strokeColor=default;dashed=1;dashPattern=12 12;" vertex="1" parent="1">
          <mxGeometry x="-212" y="306" width="196" height="107.5" as="geometry" />
        </mxCell>
        <mxCell id="afysz009fwl63MePta9u-14" value="" style="verticalLabelPosition=bottom;verticalAlign=top;html=1;shape=mxgraph.basic.8_point_star" vertex="1" parent="1">
          <mxGeometry x="40" y="392" width="234" height="89" as="geometry" />
        </mxCell>
        <mxCell id="afysz009fwl63MePta9u-15" value="exploit" style="text;html=1;align=center;verticalAlign=middle;whiteSpace=wrap;rounded=0;" vertex="1" parent="1">
          <mxGeometry x="127" y="424" width="60" height="30" as="geometry" />
        </mxCell>
        <mxCell id="afysz009fwl63MePta9u-17" value="执行 exploit&lt;div&gt;exploit （命令）&lt;/div&gt;&lt;div&gt;run（命令）&lt;/div&gt;&lt;div&gt;&lt;br&gt;&lt;/div&gt;" style="rounded=0;whiteSpace=wrap;html=1;" vertex="1" parent="1">
          <mxGeometry x="411" y="269" width="240" height="106" as="geometry" />
        </mxCell>
        <mxCell id="afysz009fwl63MePta9u-18" value="" style="endArrow=classic;html=1;rounded=0;exitX=1;exitY=0.29;exitDx=0;exitDy=0;exitPerimeter=0;entryX=0;entryY=0.5;entryDx=0;entryDy=0;" edge="1" parent="1" source="afysz009fwl63MePta9u-14" target="afysz009fwl63MePta9u-17">
          <mxGeometry width="50" height="50" relative="1" as="geometry">
            <mxPoint x="279" y="369" as="sourcePoint" />
            <mxPoint x="329" y="319" as="targetPoint" />
          </mxGeometry>
        </mxCell>
      </root>
    </mxGraphModel>
  </diagram>
  <diagram id="n2_BnfN_igDrLCDJSh_j" name="Cache 和 CPU 与 主存之间的作用流程">
    <mxGraphModel grid="0" page="0" gridSize="10" guides="1" tooltips="1" connect="1" arrows="1" fold="1" pageScale="1" pageWidth="827" pageHeight="1169" math="0" shadow="0">
      <root>
        <mxCell id="0" />
        <mxCell id="1" parent="0" />
        <mxCell id="JIj4gFBFJ_piq4wZUrj_-3" value="" style="edgeStyle=orthogonalEdgeStyle;rounded=0;orthogonalLoop=1;jettySize=auto;html=1;" edge="1" parent="1" source="JIj4gFBFJ_piq4wZUrj_-1" target="JIj4gFBFJ_piq4wZUrj_-2">
          <mxGeometry relative="1" as="geometry" />
        </mxCell>
        <mxCell id="JIj4gFBFJ_piq4wZUrj_-1" value="&lt;font style=&quot;font-size: 21px;&quot;&gt;开始&lt;/font&gt;" style="rounded=0;whiteSpace=wrap;html=1;" vertex="1" parent="1">
          <mxGeometry x="-51" y="52" width="120" height="60" as="geometry" />
        </mxCell>
        <mxCell id="JIj4gFBFJ_piq4wZUrj_-5" value="" style="edgeStyle=orthogonalEdgeStyle;rounded=0;orthogonalLoop=1;jettySize=auto;html=1;" edge="1" parent="1" source="JIj4gFBFJ_piq4wZUrj_-2" target="JIj4gFBFJ_piq4wZUrj_-4">
          <mxGeometry relative="1" as="geometry" />
        </mxCell>
        <mxCell id="JIj4gFBFJ_piq4wZUrj_-2" value="&lt;font style=&quot;font-size: 20px;&quot;&gt;CPU发出访问地址&lt;/font&gt;" style="rounded=1;whiteSpace=wrap;html=1;" vertex="1" parent="1">
          <mxGeometry x="-120.5" y="174" width="259" height="63" as="geometry" />
        </mxCell>
        <mxCell id="JIj4gFBFJ_piq4wZUrj_-7" style="edgeStyle=orthogonalEdgeStyle;rounded=0;orthogonalLoop=1;jettySize=auto;html=1;entryX=0.5;entryY=0;entryDx=0;entryDy=0;" edge="1" parent="1" source="JIj4gFBFJ_piq4wZUrj_-4" target="JIj4gFBFJ_piq4wZUrj_-6">
          <mxGeometry relative="1" as="geometry" />
        </mxCell>
        <mxCell id="JIj4gFBFJ_piq4wZUrj_-19" style="edgeStyle=orthogonalEdgeStyle;rounded=0;orthogonalLoop=1;jettySize=auto;html=1;entryX=0.25;entryY=0;entryDx=0;entryDy=0;exitX=0;exitY=0.5;exitDx=0;exitDy=0;" edge="1" parent="1" source="JIj4gFBFJ_piq4wZUrj_-4" target="JIj4gFBFJ_piq4wZUrj_-9">
          <mxGeometry relative="1" as="geometry" />
        </mxCell>
        <mxCell id="JIj4gFBFJ_piq4wZUrj_-20" style="edgeStyle=orthogonalEdgeStyle;rounded=0;orthogonalLoop=1;jettySize=auto;html=1;entryX=0.5;entryY=0;entryDx=0;entryDy=0;exitX=1;exitY=0.5;exitDx=0;exitDy=0;" edge="1" parent="1" source="JIj4gFBFJ_piq4wZUrj_-4" target="JIj4gFBFJ_piq4wZUrj_-18">
          <mxGeometry relative="1" as="geometry" />
        </mxCell>
        <mxCell id="JIj4gFBFJ_piq4wZUrj_-4" value="&lt;font style=&quot;font-size: 20px;&quot;&gt;命中？&lt;/font&gt;" style="rhombus;whiteSpace=wrap;html=1;" vertex="1" parent="1">
          <mxGeometry x="-129.5" y="316" width="277" height="80" as="geometry" />
        </mxCell>
        <mxCell id="JIj4gFBFJ_piq4wZUrj_-15" style="edgeStyle=orthogonalEdgeStyle;rounded=0;orthogonalLoop=1;jettySize=auto;html=1;" edge="1" parent="1" source="JIj4gFBFJ_piq4wZUrj_-6" target="JIj4gFBFJ_piq4wZUrj_-14">
          <mxGeometry relative="1" as="geometry" />
        </mxCell>
        <mxCell id="JIj4gFBFJ_piq4wZUrj_-21" value="" style="edgeStyle=orthogonalEdgeStyle;rounded=0;orthogonalLoop=1;jettySize=auto;html=1;" edge="1" parent="1" source="JIj4gFBFJ_piq4wZUrj_-6" target="JIj4gFBFJ_piq4wZUrj_-17">
          <mxGeometry relative="1" as="geometry" />
        </mxCell>
        <mxCell id="JIj4gFBFJ_piq4wZUrj_-6" value="&lt;font style=&quot;font-size: 20px;&quot;&gt;Cache满？&lt;/font&gt;" style="rhombus;whiteSpace=wrap;html=1;" vertex="1" parent="1">
          <mxGeometry x="337" y="401" width="277" height="80" as="geometry" />
        </mxCell>
        <mxCell id="JIj4gFBFJ_piq4wZUrj_-8" value="&lt;font style=&quot;font-size: 20px;&quot;&gt;结束&lt;/font&gt;" style="rounded=1;whiteSpace=wrap;html=1;" vertex="1" parent="1">
          <mxGeometry x="-55" y="787" width="120" height="60" as="geometry" />
        </mxCell>
        <mxCell id="JIj4gFBFJ_piq4wZUrj_-11" style="edgeStyle=orthogonalEdgeStyle;rounded=0;orthogonalLoop=1;jettySize=auto;html=1;entryX=0.5;entryY=0;entryDx=0;entryDy=0;exitX=0.25;exitY=1;exitDx=0;exitDy=0;" edge="1" parent="1" source="JIj4gFBFJ_piq4wZUrj_-9" target="JIj4gFBFJ_piq4wZUrj_-8">
          <mxGeometry relative="1" as="geometry" />
        </mxCell>
        <mxCell id="JIj4gFBFJ_piq4wZUrj_-9" value="&lt;div&gt;&lt;font style=&quot;font-size: 20px;&quot;&gt;访问 Cache&amp;nbsp;&lt;/font&gt;&lt;/div&gt;&lt;div&gt;&lt;font style=&quot;font-size: 20px;&quot;&gt;取出信息送CPU&lt;/font&gt;&lt;/div&gt;" style="rounded=0;whiteSpace=wrap;html=1;" vertex="1" parent="1">
          <mxGeometry x="-320" y="524" width="226" height="75" as="geometry" />
        </mxCell>
        <mxCell id="JIj4gFBFJ_piq4wZUrj_-12" value="&lt;font style=&quot;font-size: 20px;&quot;&gt;Y&lt;/font&gt;" style="text;html=1;align=center;verticalAlign=middle;whiteSpace=wrap;rounded=0;" vertex="1" parent="1">
          <mxGeometry x="-233" y="324" width="60" height="30" as="geometry" />
        </mxCell>
        <mxCell id="JIj4gFBFJ_piq4wZUrj_-13" value="&lt;font style=&quot;font-size: 20px;&quot;&gt;N&lt;/font&gt;" style="text;html=1;align=center;verticalAlign=middle;whiteSpace=wrap;rounded=0;" vertex="1" parent="1">
          <mxGeometry x="209" y="321" width="60" height="30" as="geometry" />
        </mxCell>
        <mxCell id="JIj4gFBFJ_piq4wZUrj_-26" style="edgeStyle=orthogonalEdgeStyle;rounded=0;orthogonalLoop=1;jettySize=auto;html=1;entryX=1;entryY=0.5;entryDx=0;entryDy=0;exitX=0.5;exitY=1;exitDx=0;exitDy=0;" edge="1" parent="1" source="JIj4gFBFJ_piq4wZUrj_-14" target="JIj4gFBFJ_piq4wZUrj_-17">
          <mxGeometry relative="1" as="geometry">
            <Array as="points">
              <mxPoint x="820" y="698" />
              <mxPoint x="648" y="698" />
              <mxPoint x="648" y="562" />
            </Array>
          </mxGeometry>
        </mxCell>
        <mxCell id="JIj4gFBFJ_piq4wZUrj_-14" value="&lt;div&gt;&lt;font style=&quot;font-size: 20px;&quot;&gt;执行替换算法腾出空位&lt;/font&gt;&lt;/div&gt;" style="rounded=0;whiteSpace=wrap;html=1;" vertex="1" parent="1">
          <mxGeometry x="707" y="524" width="226" height="75" as="geometry" />
        </mxCell>
        <mxCell id="JIj4gFBFJ_piq4wZUrj_-16" value="&lt;font style=&quot;font-size: 20px;&quot;&gt;Y&lt;/font&gt;" style="text;html=1;align=center;verticalAlign=middle;whiteSpace=wrap;rounded=0;" vertex="1" parent="1">
          <mxGeometry x="643" y="409" width="60" height="30" as="geometry" />
        </mxCell>
        <mxCell id="JIj4gFBFJ_piq4wZUrj_-24" style="edgeStyle=orthogonalEdgeStyle;rounded=0;orthogonalLoop=1;jettySize=auto;html=1;entryX=0.5;entryY=0;entryDx=0;entryDy=0;exitX=0.5;exitY=1;exitDx=0;exitDy=0;" edge="1" parent="1" source="JIj4gFBFJ_piq4wZUrj_-17" target="JIj4gFBFJ_piq4wZUrj_-8">
          <mxGeometry relative="1" as="geometry" />
        </mxCell>
        <mxCell id="JIj4gFBFJ_piq4wZUrj_-17" value="&lt;div&gt;&lt;font style=&quot;font-size: 20px;&quot;&gt;执将新的主存块掉入Cache中&lt;/font&gt;&lt;/div&gt;" style="rounded=0;whiteSpace=wrap;html=1;" vertex="1" parent="1">
          <mxGeometry x="362.5" y="524" width="226" height="75" as="geometry" />
        </mxCell>
        <mxCell id="JIj4gFBFJ_piq4wZUrj_-22" style="edgeStyle=orthogonalEdgeStyle;rounded=0;orthogonalLoop=1;jettySize=auto;html=1;entryX=0.5;entryY=0;entryDx=0;entryDy=0;" edge="1" parent="1" source="JIj4gFBFJ_piq4wZUrj_-18" target="JIj4gFBFJ_piq4wZUrj_-8">
          <mxGeometry relative="1" as="geometry" />
        </mxCell>
        <mxCell id="JIj4gFBFJ_piq4wZUrj_-18" value="&lt;div&gt;&lt;font style=&quot;font-size: 20px;&quot;&gt;访问主存取出&lt;/font&gt;&lt;/div&gt;&lt;div&gt;&lt;font style=&quot;font-size: 20px;&quot;&gt;信息送达CPU&lt;/font&gt;&lt;/div&gt;" style="rounded=0;whiteSpace=wrap;html=1;" vertex="1" parent="1">
          <mxGeometry x="53" y="522" width="226" height="75" as="geometry" />
        </mxCell>
        <mxCell id="JIj4gFBFJ_piq4wZUrj_-27" value="&lt;font style=&quot;font-size: 20px;&quot;&gt;N&lt;/font&gt;" style="text;html=1;align=center;verticalAlign=middle;whiteSpace=wrap;rounded=0;" vertex="1" parent="1">
          <mxGeometry x="479" y="487" width="60" height="30" as="geometry" />
        </mxCell>
      </root>
    </mxGraphModel>
  </diagram>
  <diagram id="9PBLkI79KpnAGlkXn9WJ" name="第 4 页">
    <mxGraphModel dx="1314" dy="944" grid="0" gridSize="10" guides="1" tooltips="1" connect="1" arrows="1" fold="1" page="0" pageScale="1" pageWidth="827" pageHeight="1169" math="0" shadow="0">
      <root>
        <mxCell id="0" />
        <mxCell id="1" parent="0" />
        <mxCell id="VvnCiMWUyqMPUR74TQhF-10" value="" style="edgeStyle=orthogonalEdgeStyle;rounded=0;orthogonalLoop=1;jettySize=auto;html=1;" edge="1" parent="1" source="VvnCiMWUyqMPUR74TQhF-1" target="VvnCiMWUyqMPUR74TQhF-9">
          <mxGeometry relative="1" as="geometry" />
        </mxCell>
        <mxCell id="VvnCiMWUyqMPUR74TQhF-1" value="&lt;div&gt;M存储体&lt;/div&gt;" style="rounded=1;whiteSpace=wrap;html=1;" vertex="1" parent="1">
          <mxGeometry x="-191" y="-27" width="120" height="60" as="geometry" />
        </mxCell>
        <mxCell id="VvnCiMWUyqMPUR74TQhF-7" value="" style="edgeStyle=orthogonalEdgeStyle;rounded=0;orthogonalLoop=1;jettySize=auto;html=1;" edge="1" parent="1" source="VvnCiMWUyqMPUR74TQhF-2" target="VvnCiMWUyqMPUR74TQhF-3">
          <mxGeometry relative="1" as="geometry" />
        </mxCell>
        <mxCell id="VvnCiMWUyqMPUR74TQhF-2" value="&lt;div&gt;译码电路&lt;/div&gt;" style="rounded=1;whiteSpace=wrap;html=1;" vertex="1" parent="1">
          <mxGeometry x="-189.5" y="137" width="117" height="34" as="geometry" />
        </mxCell>
        <mxCell id="VvnCiMWUyqMPUR74TQhF-8" value="" style="edgeStyle=orthogonalEdgeStyle;rounded=0;orthogonalLoop=1;jettySize=auto;html=1;" edge="1" parent="1" source="VvnCiMWUyqMPUR74TQhF-3" target="VvnCiMWUyqMPUR74TQhF-1">
          <mxGeometry relative="1" as="geometry" />
        </mxCell>
        <mxCell id="VvnCiMWUyqMPUR74TQhF-3" value="&lt;div&gt;驱动电路&lt;/div&gt;" style="rounded=1;whiteSpace=wrap;html=1;" vertex="1" parent="1">
          <mxGeometry x="-189.5" y="78" width="117" height="34" as="geometry" />
        </mxCell>
        <mxCell id="VvnCiMWUyqMPUR74TQhF-6" style="edgeStyle=orthogonalEdgeStyle;rounded=0;orthogonalLoop=1;jettySize=auto;html=1;" edge="1" parent="1" source="VvnCiMWUyqMPUR74TQhF-4" target="VvnCiMWUyqMPUR74TQhF-2">
          <mxGeometry relative="1" as="geometry" />
        </mxCell>
        <mxCell id="VvnCiMWUyqMPUR74TQhF-4" value="&lt;div&gt;MAR寄存器&lt;/div&gt;" style="rounded=0;whiteSpace=wrap;html=1;" vertex="1" parent="1">
          <mxGeometry x="-191" y="212" width="120" height="37" as="geometry" />
        </mxCell>
        <mxCell id="VvnCiMWUyqMPUR74TQhF-12" value="" style="edgeStyle=orthogonalEdgeStyle;rounded=0;orthogonalLoop=1;jettySize=auto;html=1;" edge="1" parent="1" source="VvnCiMWUyqMPUR74TQhF-9" target="VvnCiMWUyqMPUR74TQhF-11">
          <mxGeometry relative="1" as="geometry" />
        </mxCell>
        <mxCell id="VvnCiMWUyqMPUR74TQhF-9" value="读写控制电路" style="rounded=1;whiteSpace=wrap;html=1;" vertex="1" parent="1">
          <mxGeometry x="43" y="-49" width="64" height="104" as="geometry" />
        </mxCell>
        <mxCell id="VvnCiMWUyqMPUR74TQhF-11" value="&lt;div&gt;MDR寄存器&lt;/div&gt;" style="rounded=1;whiteSpace=wrap;html=1;" vertex="1" parent="1">
          <mxGeometry x="195" y="-17" width="96" height="40" as="geometry" />
        </mxCell>
        <mxCell id="VvnCiMWUyqMPUR74TQhF-13" value="控制电路" style="rounded=0;whiteSpace=wrap;html=1;" vertex="1" parent="1">
          <mxGeometry x="40.5" y="112" width="69" height="33" as="geometry" />
        </mxCell>
        <mxCell id="VvnCiMWUyqMPUR74TQhF-14" value="" style="endArrow=classic;html=1;rounded=0;" edge="1" parent="1">
          <mxGeometry width="50" height="50" relative="1" as="geometry">
            <mxPoint x="53" y="203" as="sourcePoint" />
            <mxPoint x="53" y="152" as="targetPoint" />
          </mxGeometry>
        </mxCell>
        <mxCell id="VvnCiMWUyqMPUR74TQhF-15" value="" style="endArrow=classic;html=1;rounded=0;" edge="1" parent="1">
          <mxGeometry width="50" height="50" relative="1" as="geometry">
            <mxPoint x="98" y="201" as="sourcePoint" />
            <mxPoint x="98" y="152" as="targetPoint" />
          </mxGeometry>
        </mxCell>
        <mxCell id="VvnCiMWUyqMPUR74TQhF-16" value="" style="shape=singleArrow;direction=north;whiteSpace=wrap;html=1;" vertex="1" parent="1">
          <mxGeometry x="63.5" y="64" width="23" height="39" as="geometry" />
        </mxCell>
        <mxCell id="VvnCiMWUyqMPUR74TQhF-17" value="读" style="text;html=1;align=center;verticalAlign=middle;whiteSpace=wrap;rounded=0;" vertex="1" parent="1">
          <mxGeometry x="23" y="208" width="60" height="30" as="geometry" />
        </mxCell>
        <mxCell id="VvnCiMWUyqMPUR74TQhF-18" value="写" style="text;html=1;align=center;verticalAlign=middle;whiteSpace=wrap;rounded=0;" vertex="1" parent="1">
          <mxGeometry x="68" y="208" width="60" height="30" as="geometry" />
        </mxCell>
        <mxCell id="VvnCiMWUyqMPUR74TQhF-19" value="" style="endArrow=classic;html=1;rounded=0;entryX=1;entryY=0.75;entryDx=0;entryDy=0;exitX=0.016;exitY=0.644;exitDx=0;exitDy=0;exitPerimeter=0;" edge="1" parent="1" source="VvnCiMWUyqMPUR74TQhF-9" target="VvnCiMWUyqMPUR74TQhF-1">
          <mxGeometry width="50" height="50" relative="1" as="geometry">
            <mxPoint x="175" y="225" as="sourcePoint" />
            <mxPoint x="225" y="175" as="targetPoint" />
          </mxGeometry>
        </mxCell>
        <mxCell id="VvnCiMWUyqMPUR74TQhF-20" value="" style="endArrow=classic;html=1;rounded=0;entryX=1;entryY=0.75;entryDx=0;entryDy=0;" edge="1" parent="1">
          <mxGeometry width="50" height="50" relative="1" as="geometry">
            <mxPoint x="191" y="22" as="sourcePoint" />
            <mxPoint x="107" y="22" as="targetPoint" />
          </mxGeometry>
        </mxCell>
        <mxCell id="VvnCiMWUyqMPUR74TQhF-21" value="&lt;font style=&quot;font-size: 16px;&quot;&gt;CPU&lt;/font&gt;" style="rounded=1;whiteSpace=wrap;html=1;" vertex="1" parent="1">
          <mxGeometry x="-220" y="375" width="134" height="205" as="geometry" />
        </mxCell>
        <mxCell id="VvnCiMWUyqMPUR74TQhF-22" value="MAR" style="rounded=0;whiteSpace=wrap;html=1;" vertex="1" parent="1">
          <mxGeometry x="-207" y="509" width="108" height="55" as="geometry" />
        </mxCell>
        <mxCell id="VvnCiMWUyqMPUR74TQhF-23" value="MDR" style="rounded=0;whiteSpace=wrap;html=1;" vertex="1" parent="1">
          <mxGeometry x="-207" y="399" width="108" height="55" as="geometry" />
        </mxCell>
        <mxCell id="VvnCiMWUyqMPUR74TQhF-24" value="&lt;font style=&quot;font-size: 18px;&quot;&gt;主存&lt;/font&gt;" style="rounded=0;whiteSpace=wrap;html=1;" vertex="1" parent="1">
          <mxGeometry x="71" y="374" width="124" height="206" as="geometry" />
        </mxCell>
        <mxCell id="VvnCiMWUyqMPUR74TQhF-25" value="" style="shape=flexArrow;endArrow=classic;html=1;rounded=0;fillColor=default;" edge="1" parent="1">
          <mxGeometry width="50" height="50" relative="1" as="geometry">
            <mxPoint x="-99" y="536.5" as="sourcePoint" />
            <mxPoint x="67" y="536" as="targetPoint" />
          </mxGeometry>
        </mxCell>
        <mxCell id="VvnCiMWUyqMPUR74TQhF-26" value="" style="shape=flexArrow;endArrow=classic;html=1;rounded=0;fillColor=default;" edge="1" parent="1">
          <mxGeometry width="50" height="50" relative="1" as="geometry">
            <mxPoint x="-99" y="426.5" as="sourcePoint" />
            <mxPoint x="67" y="426" as="targetPoint" />
          </mxGeometry>
        </mxCell>
        <mxCell id="VvnCiMWUyqMPUR74TQhF-27" value="地址总线" style="text;html=1;align=center;verticalAlign=middle;whiteSpace=wrap;rounded=0;" vertex="1" parent="1">
          <mxGeometry x="-49" y="507" width="60" height="30" as="geometry" />
        </mxCell>
        <mxCell id="VvnCiMWUyqMPUR74TQhF-28" value="数据总线" style="text;html=1;align=center;verticalAlign=middle;whiteSpace=wrap;rounded=0;" vertex="1" parent="1">
          <mxGeometry x="-49" y="397" width="60" height="30" as="geometry" />
        </mxCell>
        <mxCell id="VvnCiMWUyqMPUR74TQhF-29" value="" style="endArrow=classic;html=1;rounded=0;" edge="1" parent="1">
          <mxGeometry width="50" height="50" relative="1" as="geometry">
            <mxPoint x="-86" y="473" as="sourcePoint" />
            <mxPoint x="63" y="473" as="targetPoint" />
          </mxGeometry>
        </mxCell>
        <mxCell id="VvnCiMWUyqMPUR74TQhF-30" value="" style="endArrow=classic;html=1;rounded=0;" edge="1" parent="1">
          <mxGeometry width="50" height="50" relative="1" as="geometry">
            <mxPoint x="-85.5" y="501" as="sourcePoint" />
            <mxPoint x="63.5" y="501" as="targetPoint" />
          </mxGeometry>
        </mxCell>
        <mxCell id="VvnCiMWUyqMPUR74TQhF-31" value="读" style="text;html=1;align=center;verticalAlign=middle;whiteSpace=wrap;rounded=0;" vertex="1" parent="1">
          <mxGeometry x="-47" y="452" width="60" height="30" as="geometry" />
        </mxCell>
        <mxCell id="VvnCiMWUyqMPUR74TQhF-32" value="写" style="text;html=1;align=center;verticalAlign=middle;whiteSpace=wrap;rounded=0;" vertex="1" parent="1">
          <mxGeometry x="-47" y="477" width="60" height="30" as="geometry" />
        </mxCell>
        <mxCell id="VvnCiMWUyqMPUR74TQhF-33" value="" style="rounded=0;whiteSpace=wrap;html=1;" vertex="1" parent="1">
          <mxGeometry x="373" y="122" width="389" height="193" as="geometry" />
        </mxCell>
        <mxCell id="VvnCiMWUyqMPUR74TQhF-34" value="&lt;div&gt;译码驱动电路&lt;/div&gt;" style="rounded=0;whiteSpace=wrap;html=1;" vertex="1" parent="1">
          <mxGeometry x="394" y="141" width="95" height="151" as="geometry" />
        </mxCell>
        <mxCell id="VvnCiMWUyqMPUR74TQhF-36" value="存储矩阵" style="whiteSpace=wrap;html=1;aspect=fixed;" vertex="1" parent="1">
          <mxGeometry x="503" y="139" width="155" height="155" as="geometry" />
        </mxCell>
        <mxCell id="VvnCiMWUyqMPUR74TQhF-37" value="读/写电路" style="rounded=0;whiteSpace=wrap;html=1;" vertex="1" parent="1">
          <mxGeometry x="682" y="139" width="64" height="157" as="geometry" />
        </mxCell>
        <mxCell id="VvnCiMWUyqMPUR74TQhF-39" value="" style="endArrow=classic;html=1;rounded=0;" edge="1" parent="1">
          <mxGeometry width="50" height="50" relative="1" as="geometry">
            <mxPoint x="278" y="286" as="sourcePoint" />
            <mxPoint x="371" y="288" as="targetPoint" />
          </mxGeometry>
        </mxCell>
        <mxCell id="VvnCiMWUyqMPUR74TQhF-40" value="片选线" style="text;html=1;align=center;verticalAlign=middle;whiteSpace=wrap;rounded=0;" vertex="1" parent="1">
          <mxGeometry x="285" y="294" width="60" height="30" as="geometry" />
        </mxCell>
      </root>
    </mxGraphModel>
  </diagram>
</mxfile>
